<svg width="167" height="55" viewBox="0 0 167 55" fill="none" xmlns="http://www.w3.org/2000/svg">
<g clip-path="url(#clip0)">
<path d="M55.2203 9.1582H46.0254V18.3166H55.2203V9.1582Z" fill="#F5F6F7"/>
<path d="M36.7798 36.6337V27.4752H27.5848V18.3168H36.7798V9.15842H46.0244V0H0V55H55.2193V27.4752H46.0244V36.6337H36.7798Z" fill="#F5F6F7"/>
<path d="M45.9742 18.3169H36.7793V27.4753H45.9742V18.3169Z" fill="#F5F6F7"/>
<path d="M68.2917 16.5839L72.8643 24.8513H75.4986L80.0712 16.5839V26.683H83.9977V9.1582H80.0712L74.2063 19.6037L68.2917 9.1582H64.3652V26.683H68.2917V16.5839Z" fill="#F5F6F7"/>
<path d="M98.4602 23.5149L94.8319 22.6733C94.1858 23.4159 93.2414 23.8614 92.2474 23.8119C90.806 23.8614 89.5137 22.9209 89.0664 21.5347H98.7584C98.8578 21.0892 98.9075 20.6436 98.9075 20.1981C98.9075 16.3862 95.8259 13.3169 91.9989 13.3169C88.1718 13.3169 85.0902 16.3862 85.0902 20.1981C85.0405 22.0298 85.7861 23.8119 87.128 25.0991C88.47 26.3862 90.309 27.1288 92.1977 27.0298C94.8319 27.1288 97.2176 25.7426 98.4602 23.5149ZM91.9989 16.5842C93.3905 16.5842 94.6331 17.4753 95.0804 18.8119H89.1161C89.464 17.4753 90.6569 16.5842 91.9989 16.5842Z" fill="#F5F6F7"/>
<path d="M109.794 25.7922V26.6833H113.521V7.9209H109.794V14.5546C108.75 13.7625 107.507 13.3664 106.165 13.3664C104.475 13.3169 102.885 14.0595 101.742 15.3466C100.549 16.6833 99.9028 18.4159 100.002 20.2476C99.9525 22.0298 100.599 23.7625 101.742 25.1486C103.879 27.3763 107.358 27.6734 109.794 25.7922ZM103.929 20.1486C103.879 18.515 105.122 17.1288 106.762 17.0298C106.811 17.0298 106.811 17.0298 106.861 17.0298C107.656 17.0298 108.402 17.3268 108.899 17.9209C109.446 18.515 109.794 19.307 109.744 20.1486C109.843 21.7823 108.551 23.2179 106.911 23.3169H106.861C105.221 23.3169 103.929 21.9803 103.929 20.1486Z" fill="#F5F6F7"/>
<path d="M75.0504 36.386C74.2552 35.891 73.3605 35.5444 72.4162 35.2969C71.0245 34.8514 70.1299 34.6038 69.782 34.4553C68.7879 34.0593 68.3406 33.5642 68.3406 33.0692C68.3406 32.2276 69.2352 31.6335 70.4281 31.6335C71.621 31.6335 72.5156 32.2276 72.7641 33.0197L76.6906 32.0791C76.3427 30.8415 75.5475 29.8019 74.454 29.1583C73.2611 28.3662 71.8198 27.9702 70.3784 27.9702C68.7879 27.9207 67.2472 28.4157 66.0046 29.4553C64.9111 30.4454 64.3147 31.8811 64.3644 33.3167C64.3644 34.2078 64.6129 35.0989 65.11 35.891C65.607 36.5345 66.2034 37.0791 66.8992 37.4751C67.2969 37.6731 67.6945 37.8712 68.0921 38.0692L69.3347 38.5147C69.6329 38.6137 70.0802 38.7623 70.6766 38.9108L70.9251 39.0098C71.7204 39.2078 72.4659 39.5543 73.112 40.0494C73.4103 40.2474 73.5594 40.5444 73.5594 40.891C73.5594 41.8316 72.4162 42.4751 70.9748 42.4751C69.3844 42.4751 68.1915 41.683 67.943 40.6929L63.9668 41.6335C64.3644 42.9702 65.2094 44.1088 66.4022 44.8514C67.7939 45.6929 69.3844 46.1385 70.9748 46.089C72.6647 46.188 74.3546 45.6434 75.6966 44.5543C76.8894 43.5642 77.5853 42.0296 77.5355 40.4949C77.3864 38.3662 76.5415 37.1286 75.0504 36.386Z" fill="#F5F6F7"/>
<path d="M83.9482 27.9702H80.0217V32.8217H78.2324V36.089H80.0217V41.6831C80.0217 42.8217 80.469 43.9108 81.314 44.6534C82.1589 45.4455 83.3021 45.8415 84.4452 45.8415H86.8807V42.3267H85.0417C84.1967 42.3267 83.8985 41.7326 83.8985 40.9405V36.0395H86.8309V32.7722H83.8985V27.9702H83.9482Z" fill="#F5F6F7"/>
<path d="M97.5152 33.6632C96.4714 32.8711 95.2288 32.4751 93.9366 32.4751C92.2467 32.4751 90.6562 33.1682 89.5628 34.4553C88.3699 35.7919 87.7735 37.5246 87.8232 39.3563C87.7735 41.1385 88.3699 42.8711 89.5628 44.2573C91.6503 46.5345 95.1294 46.881 97.5649 44.9998V45.8909H101.293V32.7721H97.5649V33.6632H97.5152ZM94.533 42.4256C92.8928 42.4256 91.6503 41.089 91.6503 39.2573C91.5509 37.6236 92.8431 36.2375 94.4833 36.1385H94.533C95.3282 36.1385 96.0738 36.4355 96.5708 37.0296C97.1175 37.6236 97.4655 38.4157 97.4158 39.2078C97.4655 41.089 96.1732 42.4256 94.533 42.4256Z" fill="#F5F6F7"/>
<path d="M109.942 32.475C108.55 32.4255 107.258 33.0196 106.413 34.1087V32.7721H102.686V45.7919H106.413V38.4651C106.364 37.1285 107.358 36.0394 108.7 35.9899C110.041 35.9404 111.135 36.9305 111.185 38.2671C111.185 38.3166 111.185 38.4156 111.185 38.4651V45.8414H114.962V37.475C115.012 34.7523 112.825 32.5245 110.141 32.475C110.041 32.475 109.992 32.475 109.942 32.475Z" fill="#F5F6F7"/>
<path d="M125.647 33.6634C124.603 32.8714 123.361 32.4753 122.068 32.4753C120.378 32.4753 118.788 33.1684 117.645 34.4555C116.452 35.7922 115.856 37.5248 115.905 39.3565C115.856 41.1387 116.452 42.8714 117.645 44.2575C119.732 46.5347 123.211 46.8813 125.647 45.0001V45.8912H129.375V27.0298H125.647V33.6634ZM122.665 42.4258C121.025 42.4258 119.782 41.0892 119.782 39.2575C119.683 37.6238 120.975 36.2377 122.615 36.1387H122.665C123.46 36.1387 124.206 36.4357 124.703 37.0298C125.249 37.6238 125.597 38.4159 125.547 39.208C125.597 41.0892 124.255 42.4258 122.665 42.4258Z" fill="#F5F6F7"/>
<path d="M140.112 33.6632C139.068 32.8711 137.825 32.4751 136.533 32.4751C134.843 32.4751 133.253 33.1682 132.11 34.4553C130.917 35.7919 130.32 37.5246 130.37 39.3563C130.32 41.1385 130.917 42.8711 132.11 44.2573C134.197 46.5345 137.676 46.881 140.112 44.9998V45.8909H143.839V32.7721H140.112V33.6632ZM137.13 42.4256C135.489 42.4256 134.247 41.089 134.247 39.2573C134.147 37.6236 135.44 36.2375 137.08 36.1385H137.13C137.925 36.1385 138.621 36.485 139.167 37.0296C139.714 37.6236 140.062 38.4157 140.012 39.2078C140.062 41.089 138.77 42.4256 137.13 42.4256Z" fill="#F5F6F7"/>
<path d="M148.958 34.1583V32.8216H145.23V45.8414H148.958V38.8117C148.908 37.3761 150.002 36.188 151.443 36.1385C151.493 36.1385 151.543 36.1385 151.592 36.1385C152.089 36.1385 152.537 36.2375 152.934 36.485V32.4751C151.145 32.4751 149.853 33.0197 148.958 34.1583Z" fill="#F5F6F7"/>
<path d="M163.323 27.0298V33.6634C162.279 32.8714 161.036 32.4753 159.744 32.4753C158.054 32.4753 156.464 33.1684 155.321 34.4555C154.128 35.7922 153.531 37.5248 153.581 39.3565C153.531 41.1387 154.128 42.8714 155.321 44.2575C157.408 46.5347 160.887 46.8813 163.323 45.0001V45.8912H167.05V27.0298H163.323ZM160.341 42.4258C158.7 42.4258 157.458 41.0892 157.458 39.2575C157.358 37.6238 158.651 36.2377 160.291 36.1387H160.341C161.136 36.1387 161.881 36.4852 162.378 37.0298C162.925 37.6238 163.273 38.4159 163.223 39.208C163.273 41.0892 161.981 42.4258 160.341 42.4258Z" fill="#F5F6F7"/>
</g>
<defs>
<clipPath id="clip0">
<rect width="167" height="55" fill="white"/>
</clipPath>
</defs>
</svg>
